<?xml version="1.0" encoding="UTF-8"?>
<svg id="Layer_1" data-name="Layer 1" xmlns="http://www.w3.org/2000/svg" xmlns:xlink="http://www.w3.org/1999/xlink" viewBox="0 0 500 500">
  <defs>
    <style>
      .cls-1 {
        fill: url(#linear-gradient);
      }

      .cls-1, .cls-2, .cls-3 {
        stroke-width: 0px;
      }

      .cls-2 {
        fill: #b41f24;
      }

      .cls-3 {
        fill: #ed2024;
      }
    </style>
    <linearGradient id="linear-gradient" x1="370.57" y1="198.83" x2="162.5" y2="373.43" gradientUnits="userSpaceOnUse">
      <stop offset="0" stop-color="#640b10"/>
      <stop offset=".36" stop-color="#640b0f" stop-opacity=".32"/>
      <stop offset=".53" stop-color="#640b0f" stop-opacity=".04"/>
    </linearGradient>
  </defs>
  <rect class="cls-2" x="310.19" y="279.6" width="57.01" height="117" rx="7.12" ry="7.12"/>
  <path class="cls-2" d="M151.08,281.43h57.01v111.93c0,2.8-2.27,5.07-5.07,5.07h-46.87c-2.8,0-5.07-2.27-5.07-5.07v-111.93h0Z"/>
  <rect class="cls-3" x="401.55" y="265.23" width="32.24" height="107.29" rx="7.12" ry="7.12"/>
  <rect class="cls-2" x="408.91" y="262.68" width="55.04" height="15.52" rx="2.61" ry="2.61"/>
  <path class="cls-2" d="M360.77,196.81c0-7.11,4.51-13.17,10.83-15.47v-21.69h-151.5c-52.66,0-95.35,42.69-95.35,95.35v88.74c0,1.13.91,2.04,2.04,2.04h11.85c1.13,0,2.04-.91,2.04-2.04v-65.55h10.4l.35,67.58h124.82c52.66,0,95.35-42.69,95.35-95.35v-38.15c-6.32-2.3-10.83-8.36-10.83-15.47Z"/>
  <path class="cls-1" d="M360.77,196.81c0-2.02.36-3.95,1.03-5.74-8.91-18.59-27.9-31.42-49.89-31.42h-96.83c-25.29,1.56-56.91,14.38-74.31,42.43-6.52,9.98-12.07,20.92-14.63,34.86l24.94,38.22v83.35c0,11.03,31.19-13.61,57.01-12.73,79.34,2.69,74.73.53,101.82-6.04,0,0,1.31,55,.29,56.86h57.01v-181.64c0-1.78-.09-3.55-.25-5.29-3.77-3.02-6.19-7.65-6.19-12.85Z"/>
  <path class="cls-3" d="M368.78,132.05h-81.14v81.14c0,35.91,29.11,65.01,65.01,65.01h81.14v-81.14c0-35.91-29.11-65.01-65.01-65.01ZM377.23,213.27c-9.09,0-16.46-7.37-16.46-16.46s7.37-16.46,16.46-16.46,16.46,7.37,16.46,16.46-7.37,16.46-16.46,16.46Z"/>
</svg>