<svg xmlns="http://www.w3.org/2000/svg" xmlns:xlink="http://www.w3.org/1999/xlink" width="1280" zoomAndPan="magnify" viewBox="0 0 960 540.000001" height="720" preserveAspectRatio="xMidYMid meet" version="1.0"><defs><g/><clipPath id="f061e45d93"><rect x="0" width="857" y="0" height="222"/></clipPath></defs><g transform="matrix(1, 0, 0, 1, 54, 160)"><g clip-path="url(#f061e45d93)"><g fill="#7c1516" fill-opacity="1"><g transform="translate(279.685863, 67.987269)"><g><path d="M 24.625 -45.890625 C 29.1875 -45.890625 32.628906 -44.898438 34.953125 -42.921875 C 37.285156 -40.953125 38.453125 -38.320312 38.453125 -35.03125 C 38.453125 -34.5 38.363281 -33.617188 38.1875 -32.390625 C 37.613281 -29.234375 36.207031 -26.445312 33.96875 -24.03125 C 31.738281 -21.613281 28.734375 -20.007812 24.953125 -19.21875 L 33.046875 0 L 25.875 0 L 18.234375 -18.765625 L 11.0625 -18.765625 L 7.703125 0 L 1.71875 0 L 9.875 -45.890625 Z M 32 -32.390625 C 32.132812 -33.179688 32.203125 -33.90625 32.203125 -34.5625 C 32.203125 -36.675781 31.507812 -38.300781 30.125 -39.4375 C 28.738281 -40.582031 26.617188 -41.15625 23.765625 -41.15625 L 15.015625 -41.15625 L 11.921875 -23.578125 L 20.734375 -23.578125 C 23.984375 -23.578125 26.550781 -24.375 28.4375 -25.96875 C 30.332031 -27.570312 31.519531 -29.710938 32 -32.390625 Z M 32 -32.390625 "/></g></g></g><g fill="#7c1516" fill-opacity="1"><g transform="translate(319.70961, 67.987269)"><g><path d="M 23.765625 -36.671875 C 26.796875 -36.671875 29.421875 -36.085938 31.640625 -34.921875 C 33.859375 -33.765625 35.546875 -32.144531 36.703125 -30.0625 C 37.867188 -27.976562 38.453125 -25.59375 38.453125 -22.90625 C 38.453125 -21.988281 38.34375 -20.875 38.125 -19.5625 C 37.945312 -18.414062 37.660156 -17.226562 37.265625 -16 L 8.421875 -16 C 8.335938 -15.125 8.296875 -14.488281 8.296875 -14.09375 C 8.296875 -11.0625 9.207031 -8.703125 11.03125 -7.015625 C 12.851562 -5.328125 15.234375 -4.484375 18.171875 -4.484375 C 20.765625 -4.484375 23.035156 -5.082031 24.984375 -6.28125 C 26.941406 -7.488281 28.425781 -9.101562 29.4375 -11.125 L 35.890625 -11.125 C 34.304688 -7.65625 31.878906 -4.832031 28.609375 -2.65625 C 25.335938 -0.488281 21.550781 0.59375 17.25 0.59375 C 12.726562 0.59375 9.09375 -0.710938 6.34375 -3.328125 C 3.601562 -5.941406 2.234375 -9.507812 2.234375 -14.03125 C 2.234375 -15.300781 2.367188 -16.660156 2.640625 -18.109375 C 3.296875 -21.835938 4.628906 -25.101562 6.640625 -27.90625 C 8.660156 -30.71875 11.148438 -32.878906 14.109375 -34.390625 C 17.078125 -35.910156 20.296875 -36.671875 23.765625 -36.671875 Z M 32.0625 -20.34375 C 32.195312 -21.21875 32.265625 -22.03125 32.265625 -22.78125 C 32.265625 -25.59375 31.375 -27.765625 29.59375 -29.296875 C 27.820312 -30.835938 25.507812 -31.609375 22.65625 -31.609375 C 19.582031 -31.609375 16.789062 -30.609375 14.28125 -28.609375 C 11.78125 -26.609375 10.09375 -23.851562 9.21875 -20.34375 Z M 32.0625 -20.34375 "/></g></g></g><g fill="#7c1516" fill-opacity="1"><g transform="translate(360.523288, 67.987269)"><g><path d="M 2.640625 -18.171875 C 3.296875 -21.859375 4.617188 -25.09375 6.609375 -27.875 C 8.609375 -30.664062 11.046875 -32.828125 13.921875 -34.359375 C 16.796875 -35.898438 19.859375 -36.671875 23.109375 -36.671875 C 26.273438 -36.671875 28.890625 -35.988281 30.953125 -34.625 C 33.015625 -33.269531 34.4375 -31.5625 35.21875 -29.5 L 36.40625 -36.078125 L 42.46875 -36.078125 L 36.078125 0 L 30.03125 0 L 31.28125 -6.71875 C 29.695312 -4.613281 27.609375 -2.867188 25.015625 -1.484375 C 22.429688 -0.0976562 19.582031 0.59375 16.46875 0.59375 C 13.65625 0.59375 11.171875 -0.0078125 9.015625 -1.21875 C 6.867188 -2.425781 5.203125 -4.148438 4.015625 -6.390625 C 2.828125 -8.628906 2.234375 -11.21875 2.234375 -14.15625 C 2.234375 -15.46875 2.367188 -16.804688 2.640625 -18.171875 Z M 33.25 -18.109375 C 33.425781 -19.023438 33.515625 -20.007812 33.515625 -21.0625 C 33.515625 -24.269531 32.554688 -26.804688 30.640625 -28.671875 C 28.734375 -30.535156 26.3125 -31.46875 23.375 -31.46875 C 21.132812 -31.46875 18.992188 -30.941406 16.953125 -29.890625 C 14.910156 -28.835938 13.164062 -27.300781 11.71875 -25.28125 C 10.269531 -23.257812 9.304688 -20.890625 8.828125 -18.171875 C 8.648438 -17.253906 8.5625 -16.242188 8.5625 -15.140625 C 8.5625 -11.890625 9.503906 -9.332031 11.390625 -7.46875 C 13.273438 -5.601562 15.691406 -4.671875 18.640625 -4.671875 C 20.867188 -4.671875 23.003906 -5.207031 25.046875 -6.28125 C 27.085938 -7.363281 28.84375 -8.925781 30.3125 -10.96875 C 31.789062 -13.007812 32.769531 -15.390625 33.25 -18.109375 Z M 33.25 -18.109375 "/></g></g></g><g fill="#7c1516" fill-opacity="1"><g transform="translate(405.023362, 67.987269)"><g><path d="M 2.640625 -18.171875 C 3.296875 -21.859375 4.617188 -25.09375 6.609375 -27.875 C 8.609375 -30.664062 11.054688 -32.828125 13.953125 -34.359375 C 16.847656 -35.898438 19.921875 -36.671875 23.171875 -36.671875 C 25.941406 -36.671875 28.421875 -36.023438 30.609375 -34.734375 C 32.804688 -33.441406 34.367188 -31.738281 35.296875 -29.625 L 38.65625 -48.71875 L 44.703125 -48.71875 L 36.078125 0 L 30.03125 0 L 31.28125 -6.78125 C 29.738281 -4.632812 27.671875 -2.867188 25.078125 -1.484375 C 22.492188 -0.0976562 19.644531 0.59375 16.53125 0.59375 C 13.71875 0.59375 11.234375 -0.0078125 9.078125 -1.21875 C 6.929688 -2.425781 5.253906 -4.148438 4.046875 -6.390625 C 2.835938 -8.628906 2.234375 -11.21875 2.234375 -14.15625 C 2.234375 -15.46875 2.367188 -16.804688 2.640625 -18.171875 Z M 33.25 -18.109375 C 33.425781 -19.023438 33.515625 -20.007812 33.515625 -21.0625 C 33.515625 -24.269531 32.554688 -26.804688 30.640625 -28.671875 C 28.734375 -30.535156 26.3125 -31.46875 23.375 -31.46875 C 21.132812 -31.46875 18.992188 -30.941406 16.953125 -29.890625 C 14.910156 -28.835938 13.164062 -27.300781 11.71875 -25.28125 C 10.269531 -23.257812 9.304688 -20.890625 8.828125 -18.171875 C 8.648438 -17.253906 8.5625 -16.242188 8.5625 -15.140625 C 8.5625 -11.890625 9.503906 -9.332031 11.390625 -7.46875 C 13.273438 -5.601562 15.691406 -4.671875 18.640625 -4.671875 C 20.867188 -4.671875 23.003906 -5.207031 25.046875 -6.28125 C 27.085938 -7.363281 28.84375 -8.925781 30.3125 -10.96875 C 31.789062 -13.007812 32.769531 -15.390625 33.25 -18.109375 Z M 33.25 -18.109375 "/></g></g></g><g fill="#7c1516" fill-opacity="1"><g transform="translate(449.523436, 67.987269)"><g><path d="M 10.46875 -36.078125 L 16.59375 -6.984375 L 32.984375 -36.078125 L 39.171875 -36.078125 L 8.09375 16.984375 L 1.84375 16.984375 L 12.046875 -0.390625 L 3.8125 -36.078125 Z M 10.46875 -36.078125 "/></g></g></g><g fill="#7c1516" fill-opacity="1"><g transform="translate(486.584889, 67.987269)"><g/></g></g><g fill="#7c1516" fill-opacity="1"><g transform="translate(506.201784, 67.987269)"><g><path d="M 10.796875 -9.875 C 10.660156 -9.21875 10.59375 -8.648438 10.59375 -8.171875 C 10.59375 -7.066406 10.929688 -6.269531 11.609375 -5.78125 C 12.296875 -5.300781 13.410156 -5.0625 14.953125 -5.0625 L 19.359375 -5.0625 L 18.4375 0 L 13.03125 0 C 10.175781 0 8.035156 -0.546875 6.609375 -1.640625 C 5.191406 -2.742188 4.484375 -4.546875 4.484375 -7.046875 C 4.484375 -8.015625 4.566406 -8.957031 4.734375 -9.875 L 8.5 -31.140625 L 3.890625 -31.140625 L 4.734375 -36.078125 L 9.421875 -36.078125 L 11 -45.171875 L 17.046875 -45.171875 L 15.46875 -36.078125 L 24.828125 -36.078125 L 23.96875 -31.140625 L 14.546875 -31.140625 Z M 10.796875 -9.875 "/></g></g></g><g fill="#7c1516" fill-opacity="1"><g transform="translate(530.163361, 67.987269)"><g><path d="M 17.578125 0.59375 C 14.546875 0.59375 11.878906 -0.03125 9.578125 -1.28125 C 7.273438 -2.53125 5.484375 -4.285156 4.203125 -6.546875 C 2.929688 -8.804688 2.296875 -11.429688 2.296875 -14.421875 C 2.296875 -18.503906 3.238281 -22.242188 5.125 -25.640625 C 7.019531 -29.046875 9.625 -31.734375 12.9375 -33.703125 C 16.25 -35.679688 19.945312 -36.671875 24.03125 -36.671875 C 27.0625 -36.671875 29.75 -36.046875 32.09375 -34.796875 C 34.445312 -33.546875 36.269531 -31.789062 37.5625 -29.53125 C 38.851562 -27.269531 39.5 -24.625 39.5 -21.59375 C 39.5 -17.507812 38.535156 -13.773438 36.609375 -10.390625 C 34.679688 -7.015625 32.046875 -4.335938 28.703125 -2.359375 C 25.367188 -0.390625 21.660156 0.59375 17.578125 0.59375 Z M 18.296875 -4.484375 C 21.148438 -4.484375 23.71875 -5.257812 26 -6.8125 C 28.289062 -8.375 30.082031 -10.4375 31.375 -13 C 32.664062 -15.570312 33.3125 -18.328125 33.3125 -21.265625 C 33.3125 -24.597656 32.34375 -27.15625 30.40625 -28.9375 C 28.476562 -30.71875 26.066406 -31.609375 23.171875 -31.609375 C 20.316406 -31.609375 17.769531 -30.828125 15.53125 -29.265625 C 13.300781 -27.710938 11.570312 -25.640625 10.34375 -23.046875 C 9.113281 -20.453125 8.5 -17.664062 8.5 -14.6875 C 8.5 -11.4375 9.421875 -8.921875 11.265625 -7.140625 C 13.109375 -5.367188 15.453125 -4.484375 18.296875 -4.484375 Z M 18.296875 -4.484375 "/></g></g></g><g fill="#7c1516" fill-opacity="1"><g transform="translate(1.342569, 188.521381)"><g><path d="M 37.03125 -65.3125 C 43.050781 -65.3125 48.242188 -64.242188 52.609375 -62.109375 C 56.984375 -59.972656 60.332031 -56.960938 62.65625 -53.078125 C 64.988281 -49.203125 66.15625 -44.660156 66.15625 -39.453125 C 66.15625 -37.648438 65.9375 -35.382812 65.5 -32.65625 C 64.382812 -26.269531 61.976562 -20.59375 58.28125 -15.625 C 54.59375 -10.664062 49.910156 -6.820312 44.234375 -4.09375 C 38.566406 -1.363281 32.320312 0 25.5 0 L 1.03125 0 L 12.5625 -65.3125 Z M 26.890625 -13.578125 C 32.910156 -13.578125 37.90625 -15.253906 41.875 -18.609375 C 45.84375 -21.960938 48.320312 -26.644531 49.3125 -32.65625 C 49.625 -34.519531 49.78125 -36.070312 49.78125 -37.3125 C 49.78125 -41.90625 48.382812 -45.457031 45.59375 -47.96875 C 42.800781 -50.476562 38.832031 -51.734375 33.6875 -51.734375 L 26.046875 -51.734375 L 19.359375 -13.578125 Z M 26.890625 -13.578125 "/></g></g></g><g fill="#7c1516" fill-opacity="1"><g transform="translate(68.984268, 188.521381)"><g><path d="M 19.171875 -57.3125 C 16.691406 -57.3125 14.722656 -57.976562 13.265625 -59.3125 C 11.804688 -60.644531 11.078125 -62.335938 11.078125 -64.390625 C 11.078125 -67.179688 12.160156 -69.566406 14.328125 -71.546875 C 16.492188 -73.535156 19.128906 -74.53125 22.234375 -74.53125 C 24.710938 -74.53125 26.664062 -73.863281 28.09375 -72.53125 C 29.519531 -71.195312 30.234375 -69.472656 30.234375 -67.359375 C 30.234375 -64.628906 29.148438 -62.269531 26.984375 -60.28125 C 24.816406 -58.300781 22.210938 -57.3125 19.171875 -57.3125 Z M 26.046875 -51.921875 L 16.9375 0 L 1.03125 0 L 10.140625 -51.921875 Z M 26.046875 -51.921875 "/></g></g></g><g fill="#7c1516" fill-opacity="1"><g transform="translate(96.43173, 188.521381)"><g><path d="M 22.609375 0.75 C 18.515625 0.75 14.835938 0.0976562 11.578125 -1.203125 C 8.328125 -2.503906 5.769531 -4.316406 3.90625 -6.640625 C 2.039062 -8.972656 1.109375 -11.660156 1.109375 -14.703125 C 1.109375 -15.140625 1.171875 -15.914062 1.296875 -17.03125 L 16.65625 -17.03125 C 16.53125 -15.101562 17.101562 -13.566406 18.375 -12.421875 C 19.644531 -11.273438 21.457031 -10.703125 23.8125 -10.703125 C 25.800781 -10.703125 27.445312 -11.070312 28.75 -11.8125 C 30.050781 -12.5625 30.703125 -13.617188 30.703125 -14.984375 C 30.703125 -16.285156 30.003906 -17.320312 28.609375 -18.09375 C 27.210938 -18.875 24.90625 -19.820312 21.6875 -20.9375 C 18.332031 -22.050781 15.519531 -23.148438 13.25 -24.234375 C 10.988281 -25.316406 9.050781 -26.882812 7.4375 -28.9375 C 5.832031 -30.988281 5.03125 -33.5625 5.03125 -36.65625 C 5.03125 -39.695312 5.925781 -42.441406 7.71875 -44.890625 C 9.519531 -47.347656 12.046875 -49.257812 15.296875 -50.625 C 18.554688 -51.988281 22.328125 -52.671875 26.609375 -52.671875 C 30.890625 -52.671875 34.609375 -51.972656 37.765625 -50.578125 C 40.929688 -49.179688 43.382812 -47.238281 45.125 -44.75 C 46.863281 -42.269531 47.734375 -39.476562 47.734375 -36.375 L 47.640625 -34.984375 L 33.21875 -34.984375 C 33.34375 -36.847656 32.785156 -38.335938 31.546875 -39.453125 C 30.304688 -40.566406 28.535156 -41.125 26.234375 -41.125 C 24.441406 -41.125 22.96875 -40.75 21.8125 -40 C 20.664062 -39.257812 20.09375 -38.238281 20.09375 -36.9375 C 20.09375 -35.570312 20.851562 -34.4375 22.375 -33.53125 C 23.894531 -32.632812 26.269531 -31.628906 29.5 -30.515625 C 32.84375 -29.398438 35.613281 -28.300781 37.8125 -27.21875 C 40.019531 -26.132812 41.914062 -24.613281 43.5 -22.65625 C 45.082031 -20.695312 45.875 -18.265625 45.875 -15.359375 C 45.875 -12.003906 44.863281 -9.117188 42.84375 -6.703125 C 40.832031 -4.285156 38.070312 -2.4375 34.5625 -1.15625 C 31.0625 0.113281 27.078125 0.75 22.609375 0.75 Z M 22.609375 0.75 "/></g></g></g><g fill="#7c1516" fill-opacity="1"><g transform="translate(148.349292, 188.521381)"><g><path d="M 24.75 -44.5625 C 26.738281 -46.988281 29.234375 -48.945312 32.234375 -50.4375 C 35.242188 -51.925781 38.582031 -52.671875 42.25 -52.671875 C 47.832031 -52.671875 52.34375 -50.835938 55.78125 -47.171875 C 59.226562 -43.515625 60.953125 -38.550781 60.953125 -32.28125 C 60.953125 -30.363281 60.765625 -28.285156 60.390625 -26.046875 C 59.453125 -20.710938 57.617188 -16.015625 54.890625 -11.953125 C 52.160156 -7.890625 48.875 -4.753906 45.03125 -2.546875 C 41.1875 -0.347656 37.125 0.75 32.84375 0.75 C 29.25 0.75 26.207031 0.00390625 23.71875 -1.484375 C 21.238281 -2.972656 19.410156 -4.894531 18.234375 -7.25 L 12.5625 24.75 L -3.34375 24.75 L 10.140625 -51.921875 L 26.046875 -51.921875 Z M 44.296875 -26.046875 C 44.472656 -27.109375 44.5625 -28.070312 44.5625 -28.9375 C 44.5625 -32.039062 43.675781 -34.457031 41.90625 -36.1875 C 40.144531 -37.925781 37.898438 -38.796875 35.171875 -38.796875 C 32.003906 -38.796875 29.117188 -37.648438 26.515625 -35.359375 C 23.910156 -33.066406 22.238281 -29.929688 21.5 -25.953125 C 21.3125 -24.835938 21.21875 -23.816406 21.21875 -22.890625 C 21.21875 -19.847656 22.082031 -17.457031 23.8125 -15.71875 C 25.550781 -13.988281 27.785156 -13.125 30.515625 -13.125 C 33.679688 -13.125 36.582031 -14.285156 39.21875 -16.609375 C 41.851562 -18.929688 43.546875 -22.078125 44.296875 -26.046875 Z M 44.296875 -26.046875 "/></g></g></g><g fill="#7c1516" fill-opacity="1"><g transform="translate(211.52497, 188.521381)"><g><path d="M 2.515625 -26.046875 C 3.441406 -31.390625 5.269531 -36.078125 8 -40.109375 C 10.726562 -44.140625 14.015625 -47.238281 17.859375 -49.40625 C 21.710938 -51.582031 25.773438 -52.671875 30.046875 -52.671875 C 33.710938 -52.671875 36.785156 -51.925781 39.265625 -50.4375 C 41.742188 -48.945312 43.539062 -46.988281 44.65625 -44.5625 L 45.96875 -51.921875 L 61.875 -51.921875 L 52.671875 0 L 36.75 0 L 38.15625 -7.34375 C 36.164062 -4.925781 33.648438 -2.972656 30.609375 -1.484375 C 27.566406 0.00390625 24.21875 0.75 20.5625 0.75 C 16.90625 0.75 13.664062 -0.0859375 10.84375 -1.765625 C 8.019531 -3.441406 5.832031 -5.8125 4.28125 -8.875 C 2.726562 -11.945312 1.953125 -15.5625 1.953125 -19.71875 C 1.953125 -21.707031 2.140625 -23.816406 2.515625 -26.046875 Z M 41.40625 -25.953125 C 41.59375 -27.078125 41.6875 -28.101562 41.6875 -29.03125 C 41.6875 -32.070312 40.800781 -34.457031 39.03125 -36.1875 C 37.257812 -37.925781 35.007812 -38.796875 32.28125 -38.796875 C 29.125 -38.796875 26.238281 -37.664062 23.625 -35.40625 C 21.019531 -33.144531 19.378906 -30.023438 18.703125 -26.046875 C 18.515625 -24.929688 18.421875 -23.910156 18.421875 -22.984375 C 18.421875 -19.941406 19.304688 -17.535156 21.078125 -15.765625 C 22.847656 -14.003906 25.066406 -13.125 27.734375 -13.125 C 30.890625 -13.125 33.769531 -14.269531 36.375 -16.5625 C 38.988281 -18.851562 40.664062 -21.984375 41.40625 -25.953125 Z M 41.40625 -25.953125 "/></g></g></g><g fill="#7c1516" fill-opacity="1"><g transform="translate(274.700661, 188.521381)"><g><path d="M 22.609375 -17.859375 C 22.546875 -17.554688 22.515625 -17.15625 22.515625 -16.65625 C 22.515625 -15.539062 22.835938 -14.734375 23.484375 -14.234375 C 24.140625 -13.734375 25.210938 -13.484375 26.703125 -13.484375 L 32.375 -13.484375 L 29.96875 0 L 21.859375 0 C 11.441406 0 6.234375 -4.375 6.234375 -13.125 C 6.234375 -14.425781 6.390625 -16.066406 6.703125 -18.046875 L 10.421875 -38.703125 L 4.09375 -38.703125 L 6.421875 -51.921875 L 12.75 -51.921875 L 14.984375 -64.578125 L 30.890625 -64.578125 L 28.65625 -51.921875 L 39.078125 -51.921875 L 36.75 -38.703125 L 26.328125 -38.703125 Z M 22.609375 -17.859375 "/></g></g></g><g fill="#7c1516" fill-opacity="1"><g transform="translate(312.4758, 188.521381)"><g><path d="M 2.515625 -25.953125 C 3.441406 -31.359375 5.363281 -36.078125 8.28125 -40.109375 C 11.195312 -44.140625 14.8125 -47.238281 19.125 -49.40625 C 23.4375 -51.582031 28.132812 -52.671875 33.21875 -52.671875 C 39.726562 -52.671875 44.875 -50.960938 48.65625 -47.546875 C 52.445312 -44.128906 54.46875 -39.320312 54.71875 -33.125 L 37.78125 -33.125 C 37.09375 -37.09375 34.671875 -39.078125 30.515625 -39.078125 C 27.597656 -39.078125 25.082031 -37.941406 22.96875 -35.671875 C 20.863281 -33.410156 19.441406 -30.171875 18.703125 -25.953125 C 18.453125 -24.648438 18.328125 -23.285156 18.328125 -21.859375 C 18.328125 -18.953125 19.007812 -16.722656 20.375 -15.171875 C 21.738281 -13.617188 23.597656 -12.84375 25.953125 -12.84375 C 30.046875 -12.84375 33.117188 -14.828125 35.171875 -18.796875 L 52.203125 -18.796875 C 49.785156 -12.710938 46.0625 -7.929688 41.03125 -4.453125 C 36.007812 -0.984375 30.269531 0.75 23.8125 0.75 C 17.113281 0.75 11.796875 -1.09375 7.859375 -4.78125 C 3.921875 -8.476562 1.953125 -13.519531 1.953125 -19.90625 C 1.953125 -21.832031 2.140625 -23.847656 2.515625 -25.953125 Z M 2.515625 -25.953125 "/></g></g></g><g fill="#7c1516" fill-opacity="1"><g transform="translate(368.766324, 188.521381)"><g><path d="M 42.15625 -52.484375 C 47.238281 -52.484375 51.253906 -51.023438 54.203125 -48.109375 C 57.148438 -45.191406 58.625 -41.128906 58.625 -35.921875 C 58.625 -34.179688 58.4375 -32.316406 58.0625 -30.328125 L 52.671875 0 L 36.84375 0 L 41.875 -28.1875 C 42.0625 -29.25 42.15625 -30.179688 42.15625 -30.984375 C 42.15625 -33.585938 41.425781 -35.601562 39.96875 -37.03125 C 38.507812 -38.457031 36.476562 -39.171875 33.875 -39.171875 C 30.769531 -39.171875 28.160156 -38.207031 26.046875 -36.28125 C 23.941406 -34.363281 22.578125 -31.664062 21.953125 -28.1875 L 21.953125 -28.375 L 16.9375 0 L 1.03125 0 L 13.21875 -68.859375 L 29.125 -68.859375 L 24.9375 -45.03125 C 26.976562 -47.332031 29.488281 -49.148438 32.46875 -50.484375 C 35.445312 -51.816406 38.675781 -52.484375 42.15625 -52.484375 Z M 42.15625 -52.484375 "/></g></g></g><g fill="#7c1516" fill-opacity="1"><g transform="translate(431.476782, 188.521381)"><g/></g></g><g fill="#7c1516" fill-opacity="1"><g transform="translate(452.969555, 188.521381)"><g><path d="M 4.1875 -32.75 C 5.300781 -39.195312 7.703125 -44.945312 11.390625 -50 C 15.085938 -55.0625 19.695312 -59.003906 25.21875 -61.828125 C 30.738281 -64.648438 36.722656 -66.0625 43.171875 -66.0625 C 50.984375 -66.0625 57.265625 -64.171875 62.015625 -60.390625 C 66.765625 -56.609375 69.351562 -51.363281 69.78125 -44.65625 L 52.296875 -44.65625 C 51.484375 -46.832031 50.066406 -48.492188 48.046875 -49.640625 C 46.035156 -50.785156 43.570312 -51.359375 40.65625 -51.359375 C 35.507812 -51.359375 31.085938 -49.664062 27.390625 -46.28125 C 23.703125 -42.90625 21.363281 -38.394531 20.375 -32.75 C 20.0625 -30.894531 19.90625 -29.285156 19.90625 -27.921875 C 19.90625 -23.328125 21.238281 -19.785156 23.90625 -17.296875 C 26.582031 -14.816406 30.367188 -13.578125 35.265625 -13.578125 C 39.234375 -13.578125 42.738281 -14.585938 45.78125 -16.609375 C 48.820312 -18.628906 51.269531 -21.5 53.125 -25.21875 L 33.03125 -25.21875 L 34.984375 -36.84375 L 69.59375 -36.84375 L 67 -22.046875 C 65.132812 -18.078125 62.476562 -14.382812 59.03125 -10.96875 C 55.59375 -7.5625 51.515625 -4.800781 46.796875 -2.6875 C 42.085938 -0.582031 37.003906 0.46875 31.546875 0.46875 C 25.898438 0.46875 20.953125 -0.628906 16.703125 -2.828125 C 12.453125 -5.035156 9.191406 -8.125 6.921875 -12.09375 C 4.660156 -16.0625 3.53125 -20.679688 3.53125 -25.953125 C 3.53125 -27.753906 3.75 -30.019531 4.1875 -32.75 Z M 4.1875 -32.75 "/></g></g></g><g fill="#7c1516" fill-opacity="1"><g transform="translate(523.867757, 188.521381)"><g><path d="M 29.125 -68.859375 L 16.9375 0 L 1.03125 0 L 13.21875 -68.859375 Z M 29.125 -68.859375 "/></g></g></g><g fill="#7c1516" fill-opacity="1"><g transform="translate(551.315207, 188.521381)"><g><path d="M 24.75 0.75 C 20.28125 0.75 16.304688 -0.148438 12.828125 -1.953125 C 9.359375 -3.753906 6.675781 -6.296875 4.78125 -9.578125 C 2.894531 -12.867188 1.953125 -16.6875 1.953125 -21.03125 C 1.953125 -26.925781 3.347656 -32.289062 6.140625 -37.125 C 8.929688 -41.96875 12.773438 -45.769531 17.671875 -48.53125 C 22.578125 -51.289062 28.039062 -52.671875 34.0625 -52.671875 C 38.519531 -52.671875 42.5 -51.753906 46 -49.921875 C 49.507812 -48.085938 52.222656 -45.523438 54.140625 -42.234375 C 56.066406 -38.953125 57.03125 -35.140625 57.03125 -30.796875 C 57.03125 -24.835938 55.617188 -19.453125 52.796875 -14.640625 C 49.984375 -9.835938 46.109375 -6.070312 41.171875 -3.34375 C 36.242188 -0.613281 30.769531 0.75 24.75 0.75 Z M 26.984375 -12.9375 C 29.585938 -12.9375 31.925781 -13.722656 34 -15.296875 C 36.082031 -16.878906 37.695312 -18.925781 38.84375 -21.4375 C 39.988281 -23.957031 40.5625 -26.582031 40.5625 -29.3125 C 40.5625 -32.414062 39.722656 -34.800781 38.046875 -36.46875 C 36.378906 -38.144531 34.273438 -38.984375 31.734375 -38.984375 C 29.066406 -38.984375 26.722656 -38.191406 24.703125 -36.609375 C 22.691406 -35.023438 21.125 -32.960938 20 -30.421875 C 18.882812 -27.878906 18.328125 -25.210938 18.328125 -22.421875 C 18.328125 -19.378906 19.132812 -17.035156 20.75 -15.390625 C 22.363281 -13.753906 24.441406 -12.9375 26.984375 -12.9375 Z M 26.984375 -12.9375 "/></g></g></g><g fill="#7c1516" fill-opacity="1"><g transform="translate(610.583119, 188.521381)"><g><path d="M 24.75 -44.5625 C 26.738281 -46.988281 29.25 -48.945312 32.28125 -50.4375 C 35.320312 -51.925781 38.644531 -52.671875 42.25 -52.671875 C 47.832031 -52.671875 52.34375 -50.851562 55.78125 -47.21875 C 59.226562 -43.59375 60.953125 -38.644531 60.953125 -32.375 C 60.953125 -30.394531 60.765625 -28.285156 60.390625 -26.046875 C 59.453125 -20.710938 57.617188 -16.015625 54.890625 -11.953125 C 52.160156 -7.890625 48.875 -4.753906 45.03125 -2.546875 C 41.1875 -0.347656 37.125 0.75 32.84375 0.75 C 29.1875 0.75 26.113281 0.0195312 23.625 -1.4375 C 21.144531 -2.894531 19.347656 -4.832031 18.234375 -7.25 L 16.9375 0 L 1.03125 0 L 13.21875 -68.859375 L 29.125 -68.859375 Z M 44.296875 -26.046875 C 44.472656 -27.109375 44.5625 -28.070312 44.5625 -28.9375 C 44.5625 -32.039062 43.675781 -34.457031 41.90625 -36.1875 C 40.144531 -37.925781 37.898438 -38.796875 35.171875 -38.796875 C 32.003906 -38.796875 29.117188 -37.648438 26.515625 -35.359375 C 23.910156 -33.066406 22.238281 -29.929688 21.5 -25.953125 C 21.3125 -24.835938 21.21875 -23.816406 21.21875 -22.890625 C 21.21875 -19.847656 22.082031 -17.457031 23.8125 -15.71875 C 25.550781 -13.988281 27.785156 -13.125 30.515625 -13.125 C 33.679688 -13.125 36.582031 -14.285156 39.21875 -16.609375 C 41.851562 -18.929688 43.546875 -22.078125 44.296875 -26.046875 Z M 44.296875 -26.046875 "/></g></g></g><g fill="#7c1516" fill-opacity="1"><g transform="translate(673.758785, 188.521381)"><g><path d="M 2.515625 -26.046875 C 3.441406 -31.390625 5.269531 -36.078125 8 -40.109375 C 10.726562 -44.140625 14.015625 -47.238281 17.859375 -49.40625 C 21.710938 -51.582031 25.773438 -52.671875 30.046875 -52.671875 C 33.710938 -52.671875 36.785156 -51.925781 39.265625 -50.4375 C 41.742188 -48.945312 43.539062 -46.988281 44.65625 -44.5625 L 45.96875 -51.921875 L 61.875 -51.921875 L 52.671875 0 L 36.75 0 L 38.15625 -7.34375 C 36.164062 -4.925781 33.648438 -2.972656 30.609375 -1.484375 C 27.566406 0.00390625 24.21875 0.75 20.5625 0.75 C 16.90625 0.75 13.664062 -0.0859375 10.84375 -1.765625 C 8.019531 -3.441406 5.832031 -5.8125 4.28125 -8.875 C 2.726562 -11.945312 1.953125 -15.5625 1.953125 -19.71875 C 1.953125 -21.707031 2.140625 -23.816406 2.515625 -26.046875 Z M 41.40625 -25.953125 C 41.59375 -27.078125 41.6875 -28.101562 41.6875 -29.03125 C 41.6875 -32.070312 40.800781 -34.457031 39.03125 -36.1875 C 37.257812 -37.925781 35.007812 -38.796875 32.28125 -38.796875 C 29.125 -38.796875 26.238281 -37.664062 23.625 -35.40625 C 21.019531 -33.144531 19.378906 -30.023438 18.703125 -26.046875 C 18.515625 -24.929688 18.421875 -23.910156 18.421875 -22.984375 C 18.421875 -19.941406 19.304688 -17.535156 21.078125 -15.765625 C 22.847656 -14.003906 25.066406 -13.125 27.734375 -13.125 C 30.890625 -13.125 33.769531 -14.269531 36.375 -16.5625 C 38.988281 -18.851562 40.664062 -21.984375 41.40625 -25.953125 Z M 41.40625 -25.953125 "/></g></g></g><g fill="#7c1516" fill-opacity="1"><g transform="translate(736.93445, 188.521381)"><g><path d="M 29.125 -68.859375 L 16.9375 0 L 1.03125 0 L 13.21875 -68.859375 Z M 29.125 -68.859375 "/></g></g></g><g fill="#7c1516" fill-opacity="1"><g transform="translate(764.3819, 188.521381)"><g><path d="M 29.125 -68.859375 L 16.9375 0 L 1.03125 0 L 13.21875 -68.859375 Z M 29.125 -68.859375 "/></g></g></g><g fill="#7c1516" fill-opacity="1"><g transform="translate(791.82935, 188.521381)"><g><path d="M 22.046875 -51.921875 L 28.375 -19.453125 L 46.0625 -51.921875 L 63.265625 -51.921875 L 17.21875 24.65625 L 0.09375 24.65625 L 16.65625 -1.765625 L 4.375 -51.921875 Z M 22.046875 -51.921875 "/></g></g></g></g></g></svg>